<svg width="22" height="22" viewBox="0 0 22 22" fill="none" xmlns="http://www.w3.org/2000/svg">
<mask id="path-1-inside-1_1502_1172" fill="white">
<path d="M19.7997 22H7.00025C6.4168 22 5.85725 21.7682 5.44469 21.3556C5.03213 20.9431 4.80035 20.3835 4.80035 19.8V19.44C3.43549 19.1238 2.21798 18.3545 1.34626 17.2577C0.474533 16.1609 0 14.8011 0 13.4C0 11.9989 0.474533 10.6392 1.34626 9.54231C2.21798 8.44547 3.43549 7.67625 4.80035 7.36V2.2C4.80035 1.61653 5.03213 1.05695 5.44469 0.644369C5.85725 0.231789 6.4168 3.76604e-06 7.00025 3.76604e-06H15.9358C16.2258 -0.00053371 16.513 0.0564638 16.7807 0.167695C17.0485 0.278927 17.2915 0.442181 17.4958 0.648004L21.3516 4.504C21.5623 4.71295 21.7283 4.9625 21.8397 5.23753C21.9511 5.51256 22.0055 5.80733 21.9996 6.104V19.8C21.9996 20.3835 21.7678 20.9431 21.3552 21.3556C20.9427 21.7682 20.3831 22 19.7997 22ZM6.0003 19.6V19.8C6.0003 20.0652 6.10565 20.3196 6.29318 20.5071C6.4807 20.6946 6.73505 20.8 7.00025 20.8H19.7997C20.0649 20.8 20.3192 20.6946 20.5067 20.5071C20.6943 20.3196 20.7996 20.0652 20.7996 19.8V6.8H17.3998C16.8163 6.8 16.2568 6.56822 15.8442 6.15564C15.4317 5.74306 15.1999 5.18348 15.1999 4.6V1.2H7.00025C6.73505 1.2 6.4807 1.30536 6.29318 1.4929C6.10565 1.68043 6.0003 1.93479 6.0003 2.2V7.2H6.20029C7.84456 7.2 9.42148 7.85322 10.5841 9.01594C11.7468 10.1787 12.4 11.7557 12.4 13.4C12.4 15.0443 11.7468 16.6213 10.5841 17.7841C9.42148 18.9468 7.84456 19.6 6.20029 19.6H6.0003ZM6.20029 8.4C5.21143 8.4 4.24477 8.69325 3.42256 9.24265C2.60036 9.79206 1.95952 10.573 1.5811 11.4866C1.20268 12.4002 1.10367 13.4055 1.29659 14.3755C1.4895 15.3454 1.96569 16.2363 2.66492 16.9355C3.36415 17.6348 4.25502 18.111 5.22488 18.3039C6.19474 18.4969 7.20003 18.3978 8.11362 18.0194C9.02721 17.641 9.80806 17.0001 10.3574 16.1779C10.9068 15.3556 11.2001 14.3889 11.2001 13.4C11.2001 12.0739 10.6733 10.8022 9.73566 9.86447C8.79802 8.92679 7.52631 8.4 6.20029 8.4ZM16.3998 1.312V4.6C16.3998 4.86522 16.5052 5.11957 16.6927 5.30711C16.8802 5.49465 17.1346 5.6 17.3998 5.6H20.6876C20.6381 5.50918 20.5762 5.42571 20.5036 5.352L16.6478 1.496C16.5741 1.42343 16.4906 1.3615 16.3998 1.312ZM18.1997 16.4H14.1999C14.0408 16.4 13.8882 16.3368 13.7757 16.2243C13.6632 16.1117 13.6 15.9591 13.6 15.8C13.6 15.6409 13.6632 15.4883 13.7757 15.3757C13.8882 15.2632 14.0408 15.2 14.1999 15.2H18.1997C18.3589 15.2 18.5115 15.2632 18.624 15.3757C18.7365 15.4883 18.7997 15.6409 18.7997 15.8C18.7997 15.9591 18.7365 16.1117 18.624 16.2243C18.5115 16.3368 18.3589 16.4 18.1997 16.4ZM5.00034 15.2C4.846 15.1882 4.70241 15.1164 4.60036 15C4.50198 14.89 4.44758 14.7476 4.44758 14.6C4.44758 14.4524 4.50198 14.31 4.60036 14.2L5.62431 13.176V11C5.62431 10.8409 5.68753 10.6883 5.80004 10.5757C5.91256 10.4632 6.06516 10.4 6.22429 10.4C6.38341 10.4 6.53602 10.4632 6.64853 10.5757C6.76105 10.6883 6.82426 10.8409 6.82426 11V13.4C6.82412 13.5591 6.76082 13.7116 6.64827 13.824L5.40032 15C5.29827 15.1164 5.15469 15.1882 5.00034 15.2ZM18.1997 13.2H14.9999C14.8408 13.2 14.6882 13.1368 14.5756 13.0243C14.4631 12.9117 14.3999 12.7591 14.3999 12.6C14.3999 12.4409 14.4631 12.2883 14.5756 12.1757C14.6882 12.0632 14.8408 12 14.9999 12H18.1997C18.3589 12 18.5115 12.0632 18.624 12.1757C18.7365 12.2883 18.7997 12.4409 18.7997 12.6C18.7997 12.7591 18.7365 12.9117 18.624 13.0243C18.5115 13.1368 18.3589 13.2 18.1997 13.2ZM18.1997 10H14.1999C14.0408 10 13.8882 9.93679 13.7757 9.82427C13.6632 9.71174 13.6 9.55913 13.6 9.4C13.6 9.24087 13.6632 9.08826 13.7757 8.97574C13.8882 8.86322 14.0408 8.8 14.1999 8.8H18.1997C18.3589 8.8 18.5115 8.86322 18.624 8.97574C18.7365 9.08826 18.7997 9.24087 18.7997 9.4C18.7997 9.55913 18.7365 9.71174 18.624 9.82427C18.5115 9.93679 18.3589 10 18.1997 10ZM12.6 6.8H10.2001C10.041 6.8 9.88838 6.73679 9.77586 6.62427C9.66334 6.51174 9.60013 6.35913 9.60013 6.2C9.60013 6.04087 9.66334 5.88826 9.77586 5.77574C9.88838 5.66322 10.041 5.6 10.2001 5.6H12.6C12.7591 5.6 12.9117 5.66322 13.0242 5.77574C13.1368 5.88826 13.2 6.04087 13.2 6.2C13.2 6.35913 13.1368 6.51174 13.0242 6.62427C12.9117 6.73679 12.7591 6.8 12.6 6.8Z"/>
</mask>
<path d="M19.7997 22H7.00025C6.4168 22 5.85725 21.7682 5.44469 21.3556C5.03213 20.9431 4.80035 20.3835 4.80035 19.8V19.44C3.43549 19.1238 2.21798 18.3545 1.34626 17.2577C0.474533 16.1609 0 14.8011 0 13.4C0 11.9989 0.474533 10.6392 1.34626 9.54231C2.21798 8.44547 3.43549 7.67625 4.80035 7.36V2.2C4.80035 1.61653 5.03213 1.05695 5.44469 0.644369C5.85725 0.231789 6.4168 3.76604e-06 7.00025 3.76604e-06H15.9358C16.2258 -0.00053371 16.513 0.0564638 16.7807 0.167695C17.0485 0.278927 17.2915 0.442181 17.4958 0.648004L21.3516 4.504C21.5623 4.71295 21.7283 4.9625 21.8397 5.23753C21.9511 5.51256 22.0055 5.80733 21.9996 6.104V19.8C21.9996 20.3835 21.7678 20.9431 21.3552 21.3556C20.9427 21.7682 20.3831 22 19.7997 22ZM6.0003 19.6V19.8C6.0003 20.0652 6.10565 20.3196 6.29318 20.5071C6.4807 20.6946 6.73505 20.8 7.00025 20.8H19.7997C20.0649 20.8 20.3192 20.6946 20.5067 20.5071C20.6943 20.3196 20.7996 20.0652 20.7996 19.8V6.8H17.3998C16.8163 6.8 16.2568 6.56822 15.8442 6.15564C15.4317 5.74306 15.1999 5.18348 15.1999 4.6V1.2H7.00025C6.73505 1.2 6.4807 1.30536 6.29318 1.4929C6.10565 1.68043 6.0003 1.93479 6.0003 2.2V7.2H6.20029C7.84456 7.2 9.42148 7.85322 10.5841 9.01594C11.7468 10.1787 12.4 11.7557 12.4 13.4C12.4 15.0443 11.7468 16.6213 10.5841 17.7841C9.42148 18.9468 7.84456 19.6 6.20029 19.6H6.0003ZM6.20029 8.4C5.21143 8.4 4.24477 8.69325 3.42256 9.24265C2.60036 9.79206 1.95952 10.573 1.5811 11.4866C1.20268 12.4002 1.10367 13.4055 1.29659 14.3755C1.4895 15.3454 1.96569 16.2363 2.66492 16.9355C3.36415 17.6348 4.25502 18.111 5.22488 18.3039C6.19474 18.4969 7.20003 18.3978 8.11362 18.0194C9.02721 17.641 9.80806 17.0001 10.3574 16.1779C10.9068 15.3556 11.2001 14.3889 11.2001 13.4C11.2001 12.0739 10.6733 10.8022 9.73566 9.86447C8.79802 8.92679 7.52631 8.4 6.20029 8.4ZM16.3998 1.312V4.6C16.3998 4.86522 16.5052 5.11957 16.6927 5.30711C16.8802 5.49465 17.1346 5.6 17.3998 5.6H20.6876C20.6381 5.50918 20.5762 5.42571 20.5036 5.352L16.6478 1.496C16.5741 1.42343 16.4906 1.3615 16.3998 1.312ZM18.1997 16.4H14.1999C14.0408 16.4 13.8882 16.3368 13.7757 16.2243C13.6632 16.1117 13.6 15.9591 13.6 15.8C13.6 15.6409 13.6632 15.4883 13.7757 15.3757C13.8882 15.2632 14.0408 15.2 14.1999 15.2H18.1997C18.3589 15.2 18.5115 15.2632 18.624 15.3757C18.7365 15.4883 18.7997 15.6409 18.7997 15.8C18.7997 15.9591 18.7365 16.1117 18.624 16.2243C18.5115 16.3368 18.3589 16.4 18.1997 16.4ZM5.00034 15.2C4.846 15.1882 4.70241 15.1164 4.60036 15C4.50198 14.89 4.44758 14.7476 4.44758 14.6C4.44758 14.4524 4.50198 14.31 4.60036 14.2L5.62431 13.176V11C5.62431 10.8409 5.68753 10.6883 5.80004 10.5757C5.91256 10.4632 6.06516 10.4 6.22429 10.4C6.38341 10.4 6.53602 10.4632 6.64853 10.5757C6.76105 10.6883 6.82426 10.8409 6.82426 11V13.4C6.82412 13.5591 6.76082 13.7116 6.64827 13.824L5.40032 15C5.29827 15.1164 5.15469 15.1882 5.00034 15.2ZM18.1997 13.2H14.9999C14.8408 13.2 14.6882 13.1368 14.5756 13.0243C14.4631 12.9117 14.3999 12.7591 14.3999 12.6C14.3999 12.4409 14.4631 12.2883 14.5756 12.1757C14.6882 12.0632 14.8408 12 14.9999 12H18.1997C18.3589 12 18.5115 12.0632 18.624 12.1757C18.7365 12.2883 18.7997 12.4409 18.7997 12.6C18.7997 12.7591 18.7365 12.9117 18.624 13.0243C18.5115 13.1368 18.3589 13.2 18.1997 13.2ZM18.1997 10H14.1999C14.0408 10 13.8882 9.93679 13.7757 9.82427C13.6632 9.71174 13.6 9.55913 13.6 9.4C13.6 9.24087 13.6632 9.08826 13.7757 8.97574C13.8882 8.86322 14.0408 8.8 14.1999 8.8H18.1997C18.3589 8.8 18.5115 8.86322 18.624 8.97574C18.7365 9.08826 18.7997 9.24087 18.7997 9.4C18.7997 9.55913 18.7365 9.71174 18.624 9.82427C18.5115 9.93679 18.3589 10 18.1997 10ZM12.6 6.8H10.2001C10.041 6.8 9.88838 6.73679 9.77586 6.62427C9.66334 6.51174 9.60013 6.35913 9.60013 6.2C9.60013 6.04087 9.66334 5.88826 9.77586 5.77574C9.88838 5.66322 10.041 5.6 10.2001 5.6H12.6C12.7591 5.6 12.9117 5.66322 13.0242 5.77574C13.1368 5.88826 13.2 6.04087 13.2 6.2C13.2 6.35913 13.1368 6.51174 13.0242 6.62427C12.9117 6.73679 12.7591 6.8 12.6 6.8Z" fill="black" stroke="#7D879C" stroke-width="3" mask="url(#path-1-inside-1_1502_1172)"/>
</svg>
