<svg width="23" height="26" viewBox="0 0 23 26" fill="none" xmlns="http://www.w3.org/2000/svg">
<path d="M5.66339 25.5133C5.13374 25.1723 4.66432 24.7509 4.27317 24.2653C3.84292 23.7642 3.44427 23.2383 3.0794 22.6907C2.22318 21.4767 1.55171 20.1498 1.08558 18.7509C0.525637 17.1259 0.254478 15.5683 0.254478 14.0449C0.254478 12.3435 0.634773 10.8583 1.37857 9.61027C1.92994 8.63482 2.74059 7.81966 3.72666 7.24914C4.68227 6.67468 5.78028 6.36031 6.90501 6.33914C7.29874 6.33914 7.72268 6.39439 8.17266 6.50002C8.49586 6.58858 8.88959 6.72833 9.37062 6.90221C9.98262 7.13052 10.3193 7.27027 10.4334 7.30439C10.7919 7.43114 11.0933 7.48639 11.33 7.48639C11.5097 7.48639 11.7632 7.43114 12.0512 7.34664C12.2132 7.29139 12.5188 7.19389 12.9561 7.01271C13.3893 6.85996 13.7302 6.72914 14.0013 6.63164C14.4169 6.51302 14.819 6.40333 15.1775 6.34808C15.6024 6.28324 16.0337 6.26606 16.4627 6.29689C17.2062 6.34393 17.9385 6.49641 18.6362 6.74946C19.7771 7.19389 20.6997 7.88777 21.3864 8.87414C21.0962 9.04728 20.8237 9.24699 20.5729 9.47052C20.0269 9.93899 19.5618 10.489 19.1953 11.0996C18.7162 11.9341 18.4678 12.8741 18.4742 13.8288C18.4918 15.0012 18.8024 16.0339 19.4144 16.9268C19.8643 17.5886 20.4491 18.1546 21.1329 18.59C21.483 18.8183 21.7843 18.9751 22.0731 19.0808C21.938 19.487 21.7936 19.8803 21.6231 20.2703C21.2366 21.1448 20.7682 21.9833 20.2237 22.7752C19.7385 23.4569 19.3582 23.9647 19.0694 24.3027C18.6194 24.8186 18.1862 25.2127 17.7488 25.4873C17.2678 25.7961 16.6995 25.961 16.1219 25.961C15.7307 25.9756 15.3397 25.9298 14.9634 25.8253C14.6402 25.7197 14.3203 25.6051 14.0055 25.4743C13.6782 25.3288 13.3407 25.2058 12.9956 25.1063C12.1424 24.8942 11.2479 24.8928 10.394 25.1022C10.0439 25.1997 9.70726 25.3135 9.37482 25.4532C8.90722 25.6433 8.5966 25.7709 8.41695 25.8253C8.05848 25.9269 7.68658 25.9903 7.31049 26.0114C6.72871 26.0114 6.1864 25.8505 5.64911 25.5247L5.66339 25.5133ZM13.3364 5.51364C12.5758 5.88171 11.8497 6.03852 11.1285 5.98733C11.0152 5.28452 11.1285 4.56546 11.4299 3.77814C11.6865 3.11114 12.0656 2.49454 12.549 1.95814C13.0594 1.39347 13.6788 0.930637 14.3724 0.595582C15.1111 0.227519 15.8155 0.0284565 16.4888 -0.000793457C16.5761 0.735332 16.4888 1.45927 16.2092 2.24171C15.9505 2.93337 15.5721 3.5774 15.0901 4.14621C14.5982 4.71165 13.9946 5.17628 13.3146 5.51283L13.3364 5.51364Z" fill="black"/>
</svg>
